REM DIRINDEX 1\2\4,1\2\5,1\2\6,1\3\7,1\3\8
REM DIRNAME cjc128,folder01,folder02,folder03,folder04,folder05,folder06,folder07
TITLE ""
FILE "027_Lesson 23_Output_Stage.mp3" MP3
  TRACK 01 AUDIO
    TITLE "0:"
    INDEX 01 00:00:00
  TRACK 02 AUDIO
    TITLE "6:cjc128_1641"
    INDEX 01 00:00:07
  TRACK 03 AUDIO
    TITLE "0:"
    INDEX 01 00:03:12
  TRACK 04 AUDIO
    TITLE "6:cjc128_1642"
    INDEX 01 00:03:49
  TRACK 05 AUDIO
    TITLE "0:"
    INDEX 01 00:05:50
  TRACK 06 AUDIO
    TITLE "4:cjc128_1643"
    INDEX 01 00:06:37
  TRACK 07 AUDIO
    TITLE "0:"
    INDEX 01 00:10:19
  TRACK 08 AUDIO
    TITLE "5:cjc128_1644"
    INDEX 01 00:13:63
  TRACK 09 AUDIO
    TITLE "0:"
    INDEX 01 00:16:63
  TRACK 10 AUDIO
    TITLE "6:cjc128_1645"
    INDEX 01 00:17:47
  TRACK 11 AUDIO
    TITLE "0:"
    INDEX 01 00:19:26
  TRACK 12 AUDIO
    TITLE "4:cjc128_1646"
    INDEX 01 00:20:16
  TRACK 13 AUDIO
    TITLE "0:"
    INDEX 01 00:24:16
  TRACK 14 AUDIO
    TITLE "5:cjc128_1647"
    INDEX 01 00:28:66
  TRACK 15 AUDIO
    TITLE "0:"
    INDEX 01 00:33:01
  TRACK 16 AUDIO
    TITLE "6:cjc128_1648"
    INDEX 01 00:33:54
  TRACK 17 AUDIO
    TITLE "0:"
    INDEX 01 00:35:53
  TRACK 18 AUDIO
    TITLE "4:cjc128_1649"
    INDEX 01 00:36:40
  TRACK 19 AUDIO
    TITLE "0:"
    INDEX 01 00:39:17
  TRACK 20 AUDIO
    TITLE "5:cjc128_1650"
    INDEX 01 00:41:73
  TRACK 21 AUDIO
    TITLE "0:"
    INDEX 01 00:44:28
  TRACK 22 AUDIO
    TITLE "6:cjc128_1651"
    INDEX 01 00:45:02
  TRACK 23 AUDIO
    TITLE "0:"
    INDEX 01 00:47:09
  TRACK 24 AUDIO
    TITLE "4:cjc128_1652"
    INDEX 01 00:47:74
  TRACK 25 AUDIO
    TITLE "0:"
    INDEX 01 00:52:04
  TRACK 26 AUDIO
    TITLE "5:cjc128_1653"
    INDEX 01 00:56:00
  TRACK 27 AUDIO
    TITLE "0:"
    INDEX 01 00:59:22
  TRACK 28 AUDIO
    TITLE "6:cjc128_1654"
    INDEX 01 00:59:71
  TRACK 29 AUDIO
    TITLE "0:"
    INDEX 01 01:01:68
  TRACK 30 AUDIO
    TITLE "4:cjc128_1655"
    INDEX 01 01:02:55
  TRACK 31 AUDIO
    TITLE "0:"
    INDEX 01 01:05:46
  TRACK 32 AUDIO
    TITLE "5:cjc128_1656"
    INDEX 01 01:09:14
  TRACK 33 AUDIO
    TITLE "0:"
    INDEX 01 01:11:58
  TRACK 34 AUDIO
    TITLE "6:cjc128_1657"
    INDEX 01 01:12:52
  TRACK 35 AUDIO
    TITLE "0:"
    INDEX 01 01:14:51
  TRACK 36 AUDIO
    TITLE "4:cjc128_1658"
    INDEX 01 01:15:44
  TRACK 37 AUDIO
    TITLE "0:"
    INDEX 01 01:18:43
  TRACK 38 AUDIO
    TITLE "5:cjc128_1659"
    INDEX 01 01:22:27
  TRACK 39 AUDIO
    TITLE "0:"
    INDEX 01 01:25:29
  TRACK 40 AUDIO
    TITLE "6:cjc128_1660"
    INDEX 01 01:25:70
  TRACK 41 AUDIO
    TITLE "0:"
    INDEX 01 01:28:02
  TRACK 42 AUDIO
    TITLE "4:cjc128_1661"
    INDEX 01 01:28:61
  TRACK 43 AUDIO
    TITLE "0:"
    INDEX 01 01:31:73
  TRACK 44 AUDIO
    TITLE "5:cjc128_1662"
    INDEX 01 01:36:03
  TRACK 45 AUDIO
    TITLE "0:"
    INDEX 01 01:39:39
  TRACK 46 AUDIO
    TITLE "6:cjc128_1663"
    INDEX 01 01:40:27
  TRACK 47 AUDIO
    TITLE "0:"
    INDEX 01 01:42:28
  TRACK 48 AUDIO
    TITLE "4:cjc128_1664"
    INDEX 01 01:43:09
  TRACK 49 AUDIO
    TITLE "0:"
    INDEX 01 01:45:51
  TRACK 50 AUDIO
    TITLE "5:cjc128_1665"
    INDEX 01 01:48:44
  TRACK 51 AUDIO
    TITLE "0:"
    INDEX 01 01:50:49
  TRACK 52 AUDIO
    TITLE "6:cjc128_1666"
    INDEX 01 01:51:32
  TRACK 53 AUDIO
    TITLE "0:"
    INDEX 01 01:53:37
  TRACK 54 AUDIO
    TITLE "4:cjc128_1667"
    INDEX 01 01:54:19
  TRACK 55 AUDIO
    TITLE "0:"
    INDEX 01 01:57:47
  TRACK 56 AUDIO
    TITLE "5:cjc128_1668"
    INDEX 01 02:00:71
  TRACK 57 AUDIO
    TITLE "0:"
    INDEX 01 02:03:43
  TRACK 58 AUDIO
    TITLE "6:cjc128_1669"
    INDEX 01 02:04:25
  TRACK 59 AUDIO
    TITLE "0:"
    INDEX 01 02:06:18
  TRACK 60 AUDIO
    TITLE "4:cjc128_1670"
    INDEX 01 02:07:06
  TRACK 61 AUDIO
    TITLE "0:"
    INDEX 01 02:11:02
  TRACK 62 AUDIO
    TITLE "5:cjc128_1671"
    INDEX 01 02:14:53
  TRACK 63 AUDIO
    TITLE "0:"
    INDEX 01 02:17:61
  TRACK 64 AUDIO
    TITLE "6:cjc128_1672"
    INDEX 01 02:18:39
  TRACK 65 AUDIO
    TITLE "0:"
    INDEX 01 02:20:48
  TRACK 66 AUDIO
    TITLE "4:cjc128_1673"
    INDEX 01 02:21:28
  TRACK 67 AUDIO
    TITLE "0:"
    INDEX 01 02:25:06
  TRACK 68 AUDIO
    TITLE "5:cjc128_1674"
    INDEX 01 02:29:15
  TRACK 69 AUDIO
    TITLE "0:"
    INDEX 01 02:32:57
  TRACK 70 AUDIO
    TITLE "6:cjc128_1675"
    INDEX 01 02:33:45
  TRACK 71 AUDIO
    TITLE "0:"
    INDEX 01 02:35:22
  TRACK 72 AUDIO
    TITLE "4:cjc128_1676"
    INDEX 01 02:36:15
  TRACK 73 AUDIO
    TITLE "0:"
    INDEX 01 02:41:11
  TRACK 74 AUDIO
    TITLE "5:cjc128_1677"
    INDEX 01 02:46:00
  TRACK 75 AUDIO
    TITLE "0:"
    INDEX 01 02:50:06
  TRACK 76 AUDIO
    TITLE "6:cjc128_1678"
    INDEX 01 02:50:70
  TRACK 77 AUDIO
    TITLE "0:"
    INDEX 01 02:52:65
  TRACK 78 AUDIO
    TITLE "4:cjc128_1679"
    INDEX 01 02:53:55
  TRACK 79 AUDIO
    TITLE "0:"
    INDEX 01 02:56:55
  TRACK 80 AUDIO
    TITLE "5:cjc128_1680"
    INDEX 01 03:01:23
  TRACK 81 AUDIO
    TITLE "0:"
    INDEX 01 03:05:07
  TRACK 82 AUDIO
    TITLE "6:cjc128_1681"
    INDEX 01 03:05:66
  TRACK 83 AUDIO
    TITLE "0:"
    INDEX 01 03:07:63
  TRACK 84 AUDIO
    TITLE "4:cjc128_1682"
    INDEX 01 03:08:51
  TRACK 85 AUDIO
    TITLE "0:"
    INDEX 01 03:13:01
  TRACK 86 AUDIO
    TITLE "5:cjc128_1683"
    INDEX 01 03:17:24
  TRACK 87 AUDIO
    TITLE "0:"
    INDEX 01 03:20:60
  TRACK 88 AUDIO
    TITLE "6:cjc128_1684"
    INDEX 01 03:21:45
  TRACK 89 AUDIO
    TITLE "0:"
    INDEX 01 03:23:50
  TRACK 90 AUDIO
    TITLE "4:cjc128_1685"
    INDEX 01 03:24:42
  TRACK 91 AUDIO
    TITLE "0:"
    INDEX 01 03:27:62
  TRACK 92 AUDIO
    TITLE "5:cjc128_1686"
    INDEX 01 03:31:36
  TRACK 93 AUDIO
    TITLE "0:"
    INDEX 01 03:34:13
  TRACK 94 AUDIO
    TITLE "6:cjc128_1687"
    INDEX 01 03:35:01
  TRACK 95 AUDIO
    TITLE "0:"
    INDEX 01 03:37:13
  TRACK 96 AUDIO
    TITLE "4:cjc128_1688"
    INDEX 01 03:38:07
  TRACK 97 AUDIO
    TITLE "0:"
    INDEX 01 03:42:05
  TRACK 98 AUDIO
    TITLE "5:cjc128_1689"
    INDEX 01 03:46:34
  TRACK 99 AUDIO
    TITLE "0:"
    INDEX 01 03:49:69
  TRACK 100 AUDIO
    TITLE "6:cjc128_1690"
    INDEX 01 03:50:57
  TRACK 101 AUDIO
    TITLE "0:"
    INDEX 01 03:52:58
  TRACK 102 AUDIO
    TITLE "4:cjc128_1691"
    INDEX 01 03:53:51
  TRACK 103 AUDIO
    TITLE "0:"
    INDEX 01 03:56:63
  TRACK 104 AUDIO
    TITLE "5:cjc128_1692"
    INDEX 01 04:00:59
  TRACK 105 AUDIO
    TITLE "0:"
    INDEX 01 04:03:67
  TRACK 106 AUDIO
    TITLE "6:cjc128_1693"
    INDEX 01 04:04:53
  TRACK 107 AUDIO
    TITLE "0:"
    INDEX 01 04:06:56
  TRACK 108 AUDIO
    TITLE "4:cjc128_1694"
    INDEX 01 04:07:40
  TRACK 109 AUDIO
    TITLE "0:"
    INDEX 01 04:11:65
  TRACK 110 AUDIO
    TITLE "5:cjc128_1695"
    INDEX 01 04:16:15
  TRACK 111 AUDIO
    TITLE "0:"
    INDEX 01 04:19:70
  TRACK 112 AUDIO
    TITLE "6:cjc128_1696"
    INDEX 01 04:20:52
  TRACK 113 AUDIO
    TITLE "0:"
    INDEX 01 04:22:73
  TRACK 114 AUDIO
    TITLE "4:cjc128_1697"
    INDEX 01 04:23:60
  TRACK 115 AUDIO
    TITLE "0:"
    INDEX 01 04:27:11
  TRACK 116 AUDIO
    TITLE "5:cjc128_1698"
    INDEX 01 04:30:31
  TRACK 117 AUDIO
    TITLE "0:"
    INDEX 01 04:33:10
